<mxfile host="app.diagrams.net" modified="2023-11-11T18:23:19.224Z" agent="Mozilla/5.0 (Windows NT 10.0; Win64; x64) AppleWebKit/537.36 (KHTML, like Gecko) Chrome/119.0.0.0 Safari/537.36" etag="FOL6_c3SpWQOV_nmFzJS" version="22.1.0" type="device">
  <diagram id="R2lEEEUBdFMjLlhIrx00" name="Page-1">
    <mxGraphModel dx="1510" dy="663" grid="1" gridSize="10" guides="1" tooltips="1" connect="1" arrows="1" fold="1" page="1" pageScale="1" pageWidth="850" pageHeight="1100" math="0" shadow="0" extFonts="Permanent Marker^https://fonts.googleapis.com/css?family=Permanent+Marker">
      <root>
        <mxCell id="0" />
        <mxCell id="1" parent="0" />
        <mxCell id="H5Bx8AfbAV79_ViNj87B-1" value="Customer" style="swimlane;childLayout=stackLayout;horizontal=1;startSize=50;horizontalStack=0;rounded=1;fontSize=14;fontStyle=0;strokeWidth=2;resizeParent=0;resizeLast=1;shadow=0;dashed=0;align=center;arcSize=4;whiteSpace=wrap;html=1;" parent="1" vertex="1">
          <mxGeometry x="30" y="55" width="160" height="120" as="geometry" />
        </mxCell>
        <mxCell id="H5Bx8AfbAV79_ViNj87B-2" value="&lt;u&gt;Name&lt;/u&gt;&lt;br&gt;Address&lt;br&gt;Category" style="align=left;strokeColor=none;fillColor=none;spacingLeft=4;fontSize=12;verticalAlign=top;resizable=0;rotatable=0;part=1;html=1;" parent="H5Bx8AfbAV79_ViNj87B-1" vertex="1">
          <mxGeometry y="50" width="160" height="70" as="geometry" />
        </mxCell>
        <mxCell id="H5Bx8AfbAV79_ViNj87B-3" value="order" style="shape=rhombus;html=1;dashed=0;whiteSpace=wrap;perimeter=rhombusPerimeter;" parent="1" vertex="1">
          <mxGeometry x="230" y="90" width="60" height="50" as="geometry" />
        </mxCell>
        <mxCell id="H5Bx8AfbAV79_ViNj87B-5" value="Assemblies" style="swimlane;childLayout=stackLayout;horizontal=1;startSize=50;horizontalStack=0;rounded=1;fontSize=14;fontStyle=0;strokeWidth=2;resizeParent=0;resizeLast=1;shadow=0;dashed=0;align=center;arcSize=4;whiteSpace=wrap;html=1;" parent="1" vertex="1">
          <mxGeometry x="410" y="40" width="160" height="120" as="geometry" />
        </mxCell>
        <mxCell id="H5Bx8AfbAV79_ViNj87B-6" value="&lt;u&gt;Assembly-id&lt;/u&gt;&lt;br&gt;Date-ordered&lt;br&gt;AssemblyDetails" style="align=left;strokeColor=none;fillColor=none;spacingLeft=4;fontSize=12;verticalAlign=top;resizable=0;rotatable=0;part=1;html=1;" parent="H5Bx8AfbAV79_ViNj87B-5" vertex="1">
          <mxGeometry y="50" width="160" height="70" as="geometry" />
        </mxCell>
        <mxCell id="H5Bx8AfbAV79_ViNj87B-12" value="manufactured&lt;br&gt;by" style="shape=rhombus;html=1;dashed=0;whiteSpace=wrap;perimeter=rhombusPerimeter;" parent="1" vertex="1">
          <mxGeometry x="420" y="200" width="110" height="80" as="geometry" />
        </mxCell>
        <mxCell id="H5Bx8AfbAV79_ViNj87B-14" value="" style="endArrow=none;html=1;rounded=0;" parent="1" edge="1">
          <mxGeometry width="50" height="50" relative="1" as="geometry">
            <mxPoint x="475" y="200" as="sourcePoint" />
            <mxPoint x="475" y="160" as="targetPoint" />
          </mxGeometry>
        </mxCell>
        <mxCell id="H5Bx8AfbAV79_ViNj87B-15" value="" style="endArrow=none;html=1;rounded=0;" parent="1" edge="1">
          <mxGeometry width="50" height="50" relative="1" as="geometry">
            <mxPoint x="475" y="320" as="sourcePoint" />
            <mxPoint x="475" y="280" as="targetPoint" />
          </mxGeometry>
        </mxCell>
        <mxCell id="H5Bx8AfbAV79_ViNj87B-16" value="Processes" style="swimlane;childLayout=stackLayout;horizontal=1;startSize=40;horizontalStack=0;rounded=1;fontSize=14;fontStyle=0;strokeWidth=2;resizeParent=0;resizeLast=1;shadow=0;dashed=0;align=center;arcSize=4;whiteSpace=wrap;html=1;" parent="1" vertex="1">
          <mxGeometry x="410" y="320" width="160" height="90" as="geometry" />
        </mxCell>
        <mxCell id="H5Bx8AfbAV79_ViNj87B-17" value="&lt;u&gt;ProcessId&lt;/u&gt;&lt;br&gt;ProcessData" style="align=left;strokeColor=none;fillColor=none;spacingLeft=4;fontSize=12;verticalAlign=top;resizable=0;rotatable=0;part=1;html=1;" parent="H5Bx8AfbAV79_ViNj87B-16" vertex="1">
          <mxGeometry y="40" width="160" height="50" as="geometry" />
        </mxCell>
        <mxCell id="H5Bx8AfbAV79_ViNj87B-18" value="supervised&lt;br&gt;by" style="shape=rhombus;html=1;dashed=0;whiteSpace=wrap;perimeter=rhombusPerimeter;" parent="1" vertex="1">
          <mxGeometry x="230" y="330" width="90" height="60" as="geometry" />
        </mxCell>
        <mxCell id="H5Bx8AfbAV79_ViNj87B-21" value="Department" style="swimlane;childLayout=stackLayout;horizontal=1;startSize=40;horizontalStack=0;rounded=1;fontSize=14;fontStyle=0;strokeWidth=2;resizeParent=0;resizeLast=1;shadow=0;dashed=0;align=center;arcSize=4;whiteSpace=wrap;html=1;" parent="1" vertex="1">
          <mxGeometry x="30" y="315" width="160" height="90" as="geometry" />
        </mxCell>
        <mxCell id="H5Bx8AfbAV79_ViNj87B-22" value="&lt;u&gt;DepartmentNumbe&lt;/u&gt;r&lt;br&gt;DepartmentData" style="align=left;strokeColor=none;fillColor=none;spacingLeft=4;fontSize=12;verticalAlign=top;resizable=0;rotatable=0;part=1;html=1;" parent="H5Bx8AfbAV79_ViNj87B-21" vertex="1">
          <mxGeometry y="40" width="160" height="50" as="geometry" />
        </mxCell>
        <mxCell id="H5Bx8AfbAV79_ViNj87B-30" value="Fit" style="swimlane;childLayout=stackLayout;horizontal=1;startSize=20;horizontalStack=0;rounded=1;fontSize=14;fontStyle=0;strokeWidth=2;resizeParent=0;resizeLast=1;shadow=0;dashed=0;align=center;arcSize=4;whiteSpace=wrap;html=1;" parent="1" vertex="1">
          <mxGeometry x="335" y="460" width="90" height="70" as="geometry" />
        </mxCell>
        <mxCell id="H5Bx8AfbAV79_ViNj87B-31" value="&lt;font style=&quot;font-size: 11px;&quot;&gt;fit-data&lt;br&gt;fit-type&lt;br&gt;&lt;/font&gt;" style="align=left;strokeColor=none;fillColor=none;spacingLeft=4;fontSize=12;verticalAlign=top;resizable=0;rotatable=0;part=1;html=1;" parent="H5Bx8AfbAV79_ViNj87B-30" vertex="1">
          <mxGeometry y="20" width="90" height="50" as="geometry" />
        </mxCell>
        <mxCell id="H5Bx8AfbAV79_ViNj87B-33" value="Paint" style="swimlane;childLayout=stackLayout;horizontal=1;startSize=20;horizontalStack=0;rounded=1;fontSize=14;fontStyle=0;strokeWidth=2;resizeParent=0;resizeLast=1;shadow=0;dashed=0;align=center;arcSize=4;whiteSpace=wrap;html=1;" parent="1" vertex="1">
          <mxGeometry x="430" y="460" width="100" height="90" as="geometry" />
        </mxCell>
        <mxCell id="H5Bx8AfbAV79_ViNj87B-34" value="&lt;font style=&quot;font-size: 11px;&quot;&gt;Paint-Data&lt;br&gt;Paint-type&lt;br&gt;Painting-method&lt;/font&gt;" style="align=left;strokeColor=none;fillColor=none;spacingLeft=4;fontSize=12;verticalAlign=top;resizable=0;rotatable=0;part=1;html=1;" parent="H5Bx8AfbAV79_ViNj87B-33" vertex="1">
          <mxGeometry y="20" width="100" height="70" as="geometry" />
        </mxCell>
        <mxCell id="H5Bx8AfbAV79_ViNj87B-39" value="Cut" style="swimlane;childLayout=stackLayout;horizontal=1;startSize=20;horizontalStack=0;rounded=1;fontSize=14;fontStyle=0;strokeWidth=2;resizeParent=0;resizeLast=1;shadow=0;dashed=0;align=center;arcSize=4;whiteSpace=wrap;html=1;" parent="1" vertex="1">
          <mxGeometry x="540" y="460" width="110" height="90" as="geometry" />
        </mxCell>
        <mxCell id="H5Bx8AfbAV79_ViNj87B-40" value="Cut-Data&lt;br&gt;Cutting-type&lt;br&gt;Machine-type" style="align=left;strokeColor=none;fillColor=none;spacingLeft=4;fontSize=12;verticalAlign=top;resizable=0;rotatable=0;part=1;html=1;" parent="H5Bx8AfbAV79_ViNj87B-39" vertex="1">
          <mxGeometry y="20" width="110" height="70" as="geometry" />
        </mxCell>
        <mxCell id="H5Bx8AfbAV79_ViNj87B-42" value="Job" style="swimlane;childLayout=stackLayout;horizontal=1;startSize=30;horizontalStack=0;rounded=1;fontSize=14;fontStyle=0;strokeWidth=2;resizeParent=0;resizeLast=1;shadow=0;dashed=0;align=center;arcSize=4;whiteSpace=wrap;html=1;" parent="1" vertex="1">
          <mxGeometry x="775" y="150" width="130" height="100" as="geometry" />
        </mxCell>
        <mxCell id="H5Bx8AfbAV79_ViNj87B-43" value="&lt;u&gt;Job-no&lt;/u&gt;&lt;br&gt;Job-StartDate&lt;br&gt;Job-EndDate&lt;br&gt;job-Information" style="align=left;strokeColor=none;fillColor=none;spacingLeft=4;fontSize=12;verticalAlign=top;resizable=0;rotatable=0;part=1;html=1;" parent="H5Bx8AfbAV79_ViNj87B-42" vertex="1">
          <mxGeometry y="30" width="130" height="70" as="geometry" />
        </mxCell>
        <mxCell id="H5Bx8AfbAV79_ViNj87B-47" value="&lt;font style=&quot;font-size: 12px;&quot;&gt;Assign&lt;/font&gt;" style="shape=rhombus;html=1;dashed=0;whiteSpace=wrap;perimeter=rhombusPerimeter;" parent="1" vertex="1">
          <mxGeometry x="690" y="180" width="70" height="60" as="geometry" />
        </mxCell>
        <mxCell id="H5Bx8AfbAV79_ViNj87B-53" value="Cut-Job" style="swimlane;childLayout=stackLayout;horizontal=1;startSize=30;horizontalStack=0;rounded=1;fontSize=14;fontStyle=0;strokeWidth=2;resizeParent=0;resizeLast=1;shadow=0;dashed=0;align=center;arcSize=4;whiteSpace=wrap;html=1;" parent="1" vertex="1">
          <mxGeometry x="640" y="337" width="110" height="100" as="geometry" />
        </mxCell>
        <mxCell id="H5Bx8AfbAV79_ViNj87B-54" value="Type_of_Machine&lt;br&gt;Amount_of_Time&lt;br&gt;Material_Used&lt;br&gt;Labor_time&lt;br&gt;" style="align=left;strokeColor=none;fillColor=none;spacingLeft=4;fontSize=12;verticalAlign=top;resizable=0;rotatable=0;part=1;html=1;" parent="H5Bx8AfbAV79_ViNj87B-53" vertex="1">
          <mxGeometry y="30" width="110" height="70" as="geometry" />
        </mxCell>
        <mxCell id="H5Bx8AfbAV79_ViNj87B-55" value="Paint-Job" style="swimlane;childLayout=stackLayout;horizontal=1;startSize=20;horizontalStack=0;rounded=1;fontSize=14;fontStyle=0;strokeWidth=2;resizeParent=0;resizeLast=1;shadow=0;dashed=0;align=center;arcSize=4;whiteSpace=wrap;html=1;" parent="1" vertex="1">
          <mxGeometry x="760" y="337" width="120" height="80" as="geometry" />
        </mxCell>
        <mxCell id="H5Bx8AfbAV79_ViNj87B-56" value="Color&lt;br&gt;Volume&lt;br&gt;Labor_Time" style="align=left;strokeColor=none;fillColor=none;spacingLeft=4;fontSize=12;verticalAlign=top;resizable=0;rotatable=0;part=1;html=1;" parent="H5Bx8AfbAV79_ViNj87B-55" vertex="1">
          <mxGeometry y="20" width="120" height="60" as="geometry" />
        </mxCell>
        <mxCell id="H5Bx8AfbAV79_ViNj87B-57" value="Fit_Job" style="swimlane;childLayout=stackLayout;horizontal=1;startSize=20;horizontalStack=0;rounded=1;fontSize=14;fontStyle=0;strokeWidth=2;resizeParent=0;resizeLast=1;shadow=0;dashed=0;align=center;arcSize=4;whiteSpace=wrap;html=1;" parent="1" vertex="1">
          <mxGeometry x="890" y="337" width="90" height="50" as="geometry" />
        </mxCell>
        <mxCell id="H5Bx8AfbAV79_ViNj87B-58" value="labor-time" style="align=left;strokeColor=none;fillColor=none;spacingLeft=4;fontSize=12;verticalAlign=top;resizable=0;rotatable=0;part=1;html=1;" parent="H5Bx8AfbAV79_ViNj87B-57" vertex="1">
          <mxGeometry y="20" width="90" height="30" as="geometry" />
        </mxCell>
        <mxCell id="H5Bx8AfbAV79_ViNj87B-75" value="" style="edgeStyle=orthogonalEdgeStyle;rounded=0;orthogonalLoop=1;jettySize=auto;html=1;" parent="1" source="H5Bx8AfbAV79_ViNj87B-69" target="H5Bx8AfbAV79_ViNj87B-22" edge="1">
          <mxGeometry relative="1" as="geometry" />
        </mxCell>
        <mxCell id="7BPllGT51g_7QsVJjyUz-24" style="edgeStyle=orthogonalEdgeStyle;rounded=0;orthogonalLoop=1;jettySize=auto;html=1;exitX=0.5;exitY=1;exitDx=0;exitDy=0;entryX=0.5;entryY=1;entryDx=0;entryDy=0;" parent="1" source="H5Bx8AfbAV79_ViNj87B-69" target="H5Bx8AfbAV79_ViNj87B-81" edge="1">
          <mxGeometry relative="1" as="geometry" />
        </mxCell>
        <mxCell id="H5Bx8AfbAV79_ViNj87B-69" value="maintains" style="shape=rhombus;html=1;dashed=0;whiteSpace=wrap;perimeter=rhombusPerimeter;" parent="1" vertex="1">
          <mxGeometry x="70" y="450" width="80" height="50" as="geometry" />
        </mxCell>
        <mxCell id="H5Bx8AfbAV79_ViNj87B-80" value="Department-Account" style="swimlane;childLayout=stackLayout;horizontal=1;startSize=40;horizontalStack=0;rounded=1;fontSize=14;fontStyle=0;strokeWidth=2;resizeParent=0;resizeLast=1;shadow=0;dashed=0;align=center;arcSize=4;whiteSpace=wrap;html=1;" parent="1" vertex="1">
          <mxGeometry x="1060" y="560" width="160" height="100" as="geometry" />
        </mxCell>
        <mxCell id="H5Bx8AfbAV79_ViNj87B-81" value="Details 2" style="align=left;strokeColor=none;fillColor=none;spacingLeft=4;fontSize=12;verticalAlign=top;resizable=0;rotatable=0;part=1;html=1;" parent="H5Bx8AfbAV79_ViNj87B-80" vertex="1">
          <mxGeometry y="40" width="160" height="60" as="geometry" />
        </mxCell>
        <mxCell id="7BPllGT51g_7QsVJjyUz-28" style="edgeStyle=orthogonalEdgeStyle;rounded=0;orthogonalLoop=1;jettySize=auto;html=1;exitX=1;exitY=0.5;exitDx=0;exitDy=0;entryX=1;entryY=0.5;entryDx=0;entryDy=0;" parent="1" source="H5Bx8AfbAV79_ViNj87B-83" target="H5Bx8AfbAV79_ViNj87B-89" edge="1">
          <mxGeometry relative="1" as="geometry" />
        </mxCell>
        <mxCell id="H5Bx8AfbAV79_ViNj87B-83" value="maintains" style="shape=rhombus;html=1;dashed=0;whiteSpace=wrap;perimeter=rhombusPerimeter;" parent="1" vertex="1">
          <mxGeometry x="665" y="50" width="70" height="50" as="geometry" />
        </mxCell>
        <mxCell id="H5Bx8AfbAV79_ViNj87B-88" value="Assemblies-Account" style="swimlane;childLayout=stackLayout;horizontal=1;startSize=40;horizontalStack=0;rounded=1;fontSize=14;fontStyle=0;strokeWidth=2;resizeParent=0;resizeLast=1;shadow=0;dashed=0;align=center;arcSize=4;whiteSpace=wrap;html=1;" parent="1" vertex="1">
          <mxGeometry x="1230" y="560" width="160" height="100" as="geometry" />
        </mxCell>
        <mxCell id="H5Bx8AfbAV79_ViNj87B-89" value="Details 3" style="align=left;strokeColor=none;fillColor=none;spacingLeft=4;fontSize=12;verticalAlign=top;resizable=0;rotatable=0;part=1;html=1;" parent="H5Bx8AfbAV79_ViNj87B-88" vertex="1">
          <mxGeometry y="40" width="160" height="60" as="geometry" />
        </mxCell>
        <mxCell id="H5Bx8AfbAV79_ViNj87B-95" value="Process-Account" style="swimlane;childLayout=stackLayout;horizontal=1;startSize=40;horizontalStack=0;rounded=1;fontSize=14;fontStyle=0;strokeWidth=2;resizeParent=0;resizeLast=1;shadow=0;dashed=0;align=center;arcSize=4;whiteSpace=wrap;html=1;" parent="1" vertex="1">
          <mxGeometry x="890" y="560" width="160" height="100" as="geometry" />
        </mxCell>
        <mxCell id="H5Bx8AfbAV79_ViNj87B-96" value="Details 1" style="align=left;strokeColor=none;fillColor=none;spacingLeft=4;fontSize=12;verticalAlign=top;resizable=0;rotatable=0;part=1;html=1;" parent="H5Bx8AfbAV79_ViNj87B-95" vertex="1">
          <mxGeometry y="40" width="160" height="60" as="geometry" />
        </mxCell>
        <mxCell id="H5Bx8AfbAV79_ViNj87B-99" style="edgeStyle=orthogonalEdgeStyle;rounded=0;orthogonalLoop=1;jettySize=auto;html=1;exitX=0.5;exitY=0;exitDx=0;exitDy=0;entryX=0;entryY=0.75;entryDx=0;entryDy=0;" parent="1" source="H5Bx8AfbAV79_ViNj87B-97" target="H5Bx8AfbAV79_ViNj87B-17" edge="1">
          <mxGeometry relative="1" as="geometry" />
        </mxCell>
        <mxCell id="7BPllGT51g_7QsVJjyUz-26" style="edgeStyle=orthogonalEdgeStyle;rounded=0;orthogonalLoop=1;jettySize=auto;html=1;exitX=0.5;exitY=1;exitDx=0;exitDy=0;entryX=0.5;entryY=1;entryDx=0;entryDy=0;" parent="1" source="H5Bx8AfbAV79_ViNj87B-97" target="H5Bx8AfbAV79_ViNj87B-96" edge="1">
          <mxGeometry relative="1" as="geometry">
            <Array as="points">
              <mxPoint x="310" y="710" />
              <mxPoint x="970" y="710" />
            </Array>
          </mxGeometry>
        </mxCell>
        <mxCell id="H5Bx8AfbAV79_ViNj87B-97" value="maintains" style="shape=rhombus;html=1;dashed=0;whiteSpace=wrap;perimeter=rhombusPerimeter;" parent="1" vertex="1">
          <mxGeometry x="270" y="530" width="80" height="50" as="geometry" />
        </mxCell>
        <mxCell id="EWL9WeIQgY5VzbbyvbXt-1" value="records" style="rhombus;whiteSpace=wrap;html=1;" parent="1" vertex="1">
          <mxGeometry x="940" y="160" width="80" height="80" as="geometry" />
        </mxCell>
        <mxCell id="EWL9WeIQgY5VzbbyvbXt-3" value="Transcation" style="swimlane;childLayout=stackLayout;horizontal=1;startSize=30;horizontalStack=0;rounded=1;fontSize=14;fontStyle=0;strokeWidth=2;resizeParent=0;resizeLast=1;shadow=0;dashed=0;align=center;arcSize=4;whiteSpace=wrap;html=1;" parent="1" vertex="1">
          <mxGeometry x="1080" y="170" width="160" height="90" as="geometry" />
        </mxCell>
        <mxCell id="EWL9WeIQgY5VzbbyvbXt-4" value="&lt;u&gt;T&lt;/u&gt;&lt;font style=&quot;font-size: 14px;&quot;&gt;&lt;u&gt;ranscation no&lt;br&gt;&lt;/u&gt;Sup Cost&lt;/font&gt;" style="align=left;strokeColor=none;fillColor=none;spacingLeft=4;fontSize=12;verticalAlign=top;resizable=0;rotatable=0;part=1;html=1;" parent="EWL9WeIQgY5VzbbyvbXt-3" vertex="1">
          <mxGeometry y="30" width="160" height="60" as="geometry" />
        </mxCell>
        <mxCell id="3rsQEuEhHng4sPkvRyl5-6" style="edgeStyle=orthogonalEdgeStyle;rounded=0;orthogonalLoop=1;jettySize=auto;html=1;exitX=0.5;exitY=1;exitDx=0;exitDy=0;entryX=0.75;entryY=0;entryDx=0;entryDy=0;" edge="1" parent="1" source="EWL9WeIQgY5VzbbyvbXt-6" target="H5Bx8AfbAV79_ViNj87B-80">
          <mxGeometry relative="1" as="geometry">
            <Array as="points">
              <mxPoint x="1030" y="350" />
              <mxPoint x="1030" y="510" />
              <mxPoint x="1180" y="510" />
            </Array>
          </mxGeometry>
        </mxCell>
        <mxCell id="EWL9WeIQgY5VzbbyvbXt-6" value="updates" style="shape=rhombus;html=1;dashed=0;whiteSpace=wrap;perimeter=rhombusPerimeter;" parent="1" vertex="1">
          <mxGeometry x="1100" y="300" width="80" height="50" as="geometry" />
        </mxCell>
        <mxCell id="EWL9WeIQgY5VzbbyvbXt-11" value="" style="endArrow=none;html=1;rounded=0;exitX=0.5;exitY=0;exitDx=0;exitDy=0;" parent="1" source="EWL9WeIQgY5VzbbyvbXt-6" edge="1">
          <mxGeometry width="50" height="50" relative="1" as="geometry">
            <mxPoint x="1090" y="290" as="sourcePoint" />
            <mxPoint x="1140" y="260" as="targetPoint" />
          </mxGeometry>
        </mxCell>
        <mxCell id="EWL9WeIQgY5VzbbyvbXt-13" style="edgeStyle=orthogonalEdgeStyle;rounded=0;orthogonalLoop=1;jettySize=auto;html=1;exitX=0;exitY=0.5;exitDx=0;exitDy=0;" parent="1" source="H5Bx8AfbAV79_ViNj87B-83" edge="1">
          <mxGeometry relative="1" as="geometry">
            <mxPoint x="570" y="75" as="targetPoint" />
          </mxGeometry>
        </mxCell>
        <mxCell id="EWL9WeIQgY5VzbbyvbXt-22" style="edgeStyle=orthogonalEdgeStyle;rounded=0;orthogonalLoop=1;jettySize=auto;html=1;exitX=0;exitY=0.5;exitDx=0;exitDy=0;" parent="1" source="EWL9WeIQgY5VzbbyvbXt-1" edge="1">
          <mxGeometry relative="1" as="geometry">
            <mxPoint x="900" y="200" as="targetPoint" />
          </mxGeometry>
        </mxCell>
        <mxCell id="EWL9WeIQgY5VzbbyvbXt-27" value="" style="endArrow=none;html=1;rounded=0;entryX=1;entryY=0.5;entryDx=0;entryDy=0;exitX=0;exitY=0;exitDx=0;exitDy=0;" parent="1" source="EWL9WeIQgY5VzbbyvbXt-4" target="EWL9WeIQgY5VzbbyvbXt-1" edge="1">
          <mxGeometry width="50" height="50" relative="1" as="geometry">
            <mxPoint x="670" y="320" as="sourcePoint" />
            <mxPoint x="720" y="270" as="targetPoint" />
          </mxGeometry>
        </mxCell>
        <mxCell id="Jkjb6qkn7XKNChS4eFFo-4" value="" style="shape=link;html=1;rounded=0;exitX=1;exitY=0.5;exitDx=0;exitDy=0;entryX=0;entryY=0;entryDx=0;entryDy=0;" parent="1" source="H5Bx8AfbAV79_ViNj87B-18" target="H5Bx8AfbAV79_ViNj87B-17" edge="1">
          <mxGeometry width="100" relative="1" as="geometry">
            <mxPoint x="355" y="364.23" as="sourcePoint" />
            <mxPoint x="410" y="364" as="targetPoint" />
          </mxGeometry>
        </mxCell>
        <mxCell id="Jkjb6qkn7XKNChS4eFFo-7" value="" style="shape=link;html=1;rounded=0;exitX=1;exitY=0.5;exitDx=0;exitDy=0;entryX=-0.012;entryY=0.357;entryDx=0;entryDy=0;entryPerimeter=0;" parent="1" source="H5Bx8AfbAV79_ViNj87B-3" target="H5Bx8AfbAV79_ViNj87B-6" edge="1">
          <mxGeometry width="100" relative="1" as="geometry">
            <mxPoint x="560" y="340" as="sourcePoint" />
            <mxPoint x="400" y="110" as="targetPoint" />
          </mxGeometry>
        </mxCell>
        <mxCell id="7BPllGT51g_7QsVJjyUz-1" value="" style="swimlane;startSize=0;" parent="1" vertex="1">
          <mxGeometry x="330" y="10" width="310" height="420" as="geometry" />
        </mxCell>
        <mxCell id="l3kukVg6Ni5ASB8LXEV2-63" value="" style="shape=link;html=1;rounded=0;" parent="7BPllGT51g_7QsVJjyUz-1" edge="1">
          <mxGeometry width="100" relative="1" as="geometry">
            <mxPoint x="310" y="200" as="sourcePoint" />
            <mxPoint x="360" y="200" as="targetPoint" />
          </mxGeometry>
        </mxCell>
        <mxCell id="7BPllGT51g_7QsVJjyUz-12" value="" style="endArrow=classic;html=1;rounded=0;exitX=0;exitY=0.5;exitDx=0;exitDy=0;entryX=1;entryY=0.5;entryDx=0;entryDy=0;" parent="1" source="H5Bx8AfbAV79_ViNj87B-18" target="H5Bx8AfbAV79_ViNj87B-21" edge="1">
          <mxGeometry width="50" height="50" relative="1" as="geometry">
            <mxPoint x="210" y="250" as="sourcePoint" />
            <mxPoint x="260" y="200" as="targetPoint" />
          </mxGeometry>
        </mxCell>
        <mxCell id="p9LOce2_pGE77u4Zy8qo-1" style="edgeStyle=orthogonalEdgeStyle;rounded=0;orthogonalLoop=1;jettySize=auto;html=1;exitX=0;exitY=0.5;exitDx=0;exitDy=0;entryX=1.006;entryY=0.129;entryDx=0;entryDy=0;entryPerimeter=0;" parent="1" source="H5Bx8AfbAV79_ViNj87B-3" target="H5Bx8AfbAV79_ViNj87B-2" edge="1">
          <mxGeometry relative="1" as="geometry" />
        </mxCell>
        <mxCell id="l3kukVg6Ni5ASB8LXEV2-11" value="{disjoint}" style="ellipse;html=1;fillColor=strokeColor;labelPosition=center;align=center;fontFamily=Helvetica;fontSize=11;fontColor=default;verticalAlign=top;verticalLabelPosition=bottom;" parent="1" vertex="1">
          <mxGeometry x="473" y="433" width="4" height="4" as="geometry" />
        </mxCell>
        <mxCell id="l3kukVg6Ni5ASB8LXEV2-12" value="" style="edgeStyle=elbowEdgeStyle;html=1;endSize=12;endArrow=block;endFill=0;elbow=horizontal;rounded=0;labelBackgroundColor=default;fontFamily=Helvetica;fontSize=11;fontColor=default;shape=connector;" parent="1" source="l3kukVg6Ni5ASB8LXEV2-11" edge="1">
          <mxGeometry x="1" relative="1" as="geometry">
            <mxPoint x="475" y="410" as="targetPoint" />
          </mxGeometry>
        </mxCell>
        <mxCell id="l3kukVg6Ni5ASB8LXEV2-13" value="" style="edgeStyle=elbowEdgeStyle;html=1;elbow=vertical;verticalAlign=bottom;endArrow=none;rounded=0;labelBackgroundColor=default;fontFamily=Helvetica;fontSize=11;fontColor=default;startSize=14;shape=connector;entryX=0.405;entryY=0.022;entryDx=0;entryDy=0;entryPerimeter=0;" parent="1" source="l3kukVg6Ni5ASB8LXEV2-11" target="H5Bx8AfbAV79_ViNj87B-39" edge="1">
          <mxGeometry x="1" relative="1" as="geometry">
            <mxPoint x="600" y="460" as="targetPoint" />
            <Array as="points">
              <mxPoint x="580" y="435" />
            </Array>
          </mxGeometry>
        </mxCell>
        <mxCell id="l3kukVg6Ni5ASB8LXEV2-14" value="" style="edgeStyle=elbowEdgeStyle;html=1;elbow=vertical;verticalAlign=bottom;endArrow=none;rounded=0;labelBackgroundColor=default;fontFamily=Helvetica;fontSize=11;fontColor=default;startSize=14;shape=connector;" parent="1" source="l3kukVg6Ni5ASB8LXEV2-11" edge="1">
          <mxGeometry x="1" relative="1" as="geometry">
            <mxPoint x="405" y="460" as="targetPoint" />
            <Array as="points">
              <mxPoint x="435" y="435" />
            </Array>
          </mxGeometry>
        </mxCell>
        <mxCell id="l3kukVg6Ni5ASB8LXEV2-15" value="" style="endArrow=none;html=1;rounded=0;entryX=0.5;entryY=0;entryDx=0;entryDy=0;" parent="1" target="H5Bx8AfbAV79_ViNj87B-33" edge="1">
          <mxGeometry width="50" height="50" relative="1" as="geometry">
            <mxPoint x="480" y="440" as="sourcePoint" />
            <mxPoint x="710" y="250" as="targetPoint" />
          </mxGeometry>
        </mxCell>
        <mxCell id="l3kukVg6Ni5ASB8LXEV2-22" value="" style="edgeStyle=elbowEdgeStyle;html=1;endSize=12;endArrow=block;endFill=0;elbow=horizontal;rounded=0;labelBackgroundColor=default;fontFamily=Helvetica;fontSize=11;fontColor=default;shape=connector;" parent="1" edge="1">
          <mxGeometry x="1" relative="1" as="geometry">
            <mxPoint x="767" y="580" as="targetPoint" />
            <mxPoint x="767" y="580" as="sourcePoint" />
          </mxGeometry>
        </mxCell>
        <mxCell id="l3kukVg6Ni5ASB8LXEV2-32" value="Account" style="swimlane;childLayout=stackLayout;horizontal=1;startSize=40;horizontalStack=0;rounded=1;fontSize=14;fontStyle=0;strokeWidth=2;resizeParent=0;resizeLast=1;shadow=0;dashed=0;align=center;arcSize=4;whiteSpace=wrap;html=1;" parent="1" vertex="1">
          <mxGeometry x="1070" y="390" width="160" height="100" as="geometry" />
        </mxCell>
        <mxCell id="l3kukVg6Ni5ASB8LXEV2-33" value="&lt;u style=&quot;border-color: var(--border-color);&quot;&gt;Account_Number&lt;/u&gt;&lt;br style=&quot;border-color: var(--border-color);&quot;&gt;Account_StartDate" style="align=left;strokeColor=none;fillColor=none;spacingLeft=4;fontSize=12;verticalAlign=top;resizable=0;rotatable=0;part=1;html=1;" parent="l3kukVg6Ni5ASB8LXEV2-32" vertex="1">
          <mxGeometry y="40" width="160" height="60" as="geometry" />
        </mxCell>
        <mxCell id="l3kukVg6Ni5ASB8LXEV2-39" value="{disjoint}" style="ellipse;html=1;fillColor=strokeColor;labelPosition=center;align=center;fontFamily=Helvetica;fontSize=11;fontColor=default;verticalAlign=top;verticalLabelPosition=bottom;" parent="1" vertex="1">
          <mxGeometry x="1138" y="513" width="4" height="4" as="geometry" />
        </mxCell>
        <mxCell id="l3kukVg6Ni5ASB8LXEV2-40" value="" style="edgeStyle=elbowEdgeStyle;html=1;endSize=12;endArrow=block;endFill=0;elbow=horizontal;rounded=0;labelBackgroundColor=default;fontFamily=Helvetica;fontSize=11;fontColor=default;shape=connector;" parent="1" source="l3kukVg6Ni5ASB8LXEV2-39" edge="1">
          <mxGeometry x="1" relative="1" as="geometry">
            <mxPoint x="1140" y="490" as="targetPoint" />
          </mxGeometry>
        </mxCell>
        <mxCell id="l3kukVg6Ni5ASB8LXEV2-41" value="" style="edgeStyle=elbowEdgeStyle;html=1;elbow=vertical;verticalAlign=bottom;endArrow=none;rounded=0;labelBackgroundColor=default;fontFamily=Helvetica;fontSize=11;fontColor=default;startSize=14;shape=connector;entryX=0.5;entryY=0;entryDx=0;entryDy=0;" parent="1" source="l3kukVg6Ni5ASB8LXEV2-39" target="H5Bx8AfbAV79_ViNj87B-88" edge="1">
          <mxGeometry x="1" relative="1" as="geometry">
            <mxPoint x="1210" y="540" as="targetPoint" />
            <Array as="points">
              <mxPoint x="1180" y="515" />
            </Array>
          </mxGeometry>
        </mxCell>
        <mxCell id="l3kukVg6Ni5ASB8LXEV2-42" value="" style="edgeStyle=elbowEdgeStyle;html=1;elbow=vertical;verticalAlign=bottom;endArrow=none;rounded=0;labelBackgroundColor=default;fontFamily=Helvetica;fontSize=11;fontColor=default;startSize=14;shape=connector;entryX=0.5;entryY=0;entryDx=0;entryDy=0;" parent="1" source="l3kukVg6Ni5ASB8LXEV2-39" target="H5Bx8AfbAV79_ViNj87B-95" edge="1">
          <mxGeometry x="1" relative="1" as="geometry">
            <mxPoint x="1070" y="540" as="targetPoint" />
            <Array as="points">
              <mxPoint x="1100" y="515" />
            </Array>
          </mxGeometry>
        </mxCell>
        <mxCell id="l3kukVg6Ni5ASB8LXEV2-43" value="" style="endArrow=none;html=1;rounded=0;entryX=0;entryY=1;entryDx=0;entryDy=0;exitX=0.5;exitY=0;exitDx=0;exitDy=0;" parent="1" source="H5Bx8AfbAV79_ViNj87B-80" target="l3kukVg6Ni5ASB8LXEV2-39" edge="1">
          <mxGeometry width="50" height="50" relative="1" as="geometry">
            <mxPoint x="660" y="470" as="sourcePoint" />
            <mxPoint x="710" y="420" as="targetPoint" />
          </mxGeometry>
        </mxCell>
        <mxCell id="l3kukVg6Ni5ASB8LXEV2-45" value="{disjoint}" style="ellipse;html=1;fillColor=strokeColor;labelPosition=center;align=center;fontFamily=Helvetica;fontSize=11;fontColor=default;verticalAlign=top;verticalLabelPosition=bottom;" parent="1" vertex="1">
          <mxGeometry x="818" y="273" width="4" height="4" as="geometry" />
        </mxCell>
        <mxCell id="l3kukVg6Ni5ASB8LXEV2-46" value="" style="edgeStyle=elbowEdgeStyle;html=1;endSize=12;endArrow=block;endFill=0;elbow=horizontal;rounded=0;labelBackgroundColor=default;fontFamily=Helvetica;fontSize=11;fontColor=default;shape=connector;" parent="1" source="l3kukVg6Ni5ASB8LXEV2-45" edge="1">
          <mxGeometry x="1" relative="1" as="geometry">
            <mxPoint x="820" y="250" as="targetPoint" />
          </mxGeometry>
        </mxCell>
        <mxCell id="l3kukVg6Ni5ASB8LXEV2-47" value="" style="edgeStyle=elbowEdgeStyle;html=1;elbow=vertical;verticalAlign=bottom;endArrow=none;rounded=0;labelBackgroundColor=default;fontFamily=Helvetica;fontSize=11;fontColor=default;startSize=14;shape=connector;entryX=0.5;entryY=0;entryDx=0;entryDy=0;" parent="1" source="l3kukVg6Ni5ASB8LXEV2-45" target="H5Bx8AfbAV79_ViNj87B-57" edge="1">
          <mxGeometry x="1" relative="1" as="geometry">
            <mxPoint x="890" y="300" as="targetPoint" />
            <Array as="points">
              <mxPoint x="860" y="275" />
            </Array>
          </mxGeometry>
        </mxCell>
        <mxCell id="l3kukVg6Ni5ASB8LXEV2-48" value="" style="edgeStyle=elbowEdgeStyle;html=1;elbow=vertical;verticalAlign=bottom;endArrow=none;rounded=0;labelBackgroundColor=default;fontFamily=Helvetica;fontSize=11;fontColor=default;startSize=14;shape=connector;entryX=0.5;entryY=0;entryDx=0;entryDy=0;" parent="1" source="l3kukVg6Ni5ASB8LXEV2-45" target="H5Bx8AfbAV79_ViNj87B-53" edge="1">
          <mxGeometry x="1" relative="1" as="geometry">
            <mxPoint x="750" y="300" as="targetPoint" />
            <Array as="points">
              <mxPoint x="780" y="275" />
            </Array>
          </mxGeometry>
        </mxCell>
        <mxCell id="l3kukVg6Ni5ASB8LXEV2-49" value="" style="endArrow=none;html=1;rounded=0;entryX=0.5;entryY=0;entryDx=0;entryDy=0;" parent="1" target="H5Bx8AfbAV79_ViNj87B-55" edge="1">
          <mxGeometry width="50" height="50" relative="1" as="geometry">
            <mxPoint x="820" y="280" as="sourcePoint" />
            <mxPoint x="710" y="210" as="targetPoint" />
          </mxGeometry>
        </mxCell>
        <mxCell id="l3kukVg6Ni5ASB8LXEV2-52" value="" style="endArrow=classic;html=1;rounded=0;" parent="1" edge="1">
          <mxGeometry width="50" height="50" relative="1" as="geometry">
            <mxPoint x="760" y="210" as="sourcePoint" />
            <mxPoint x="775" y="210" as="targetPoint" />
          </mxGeometry>
        </mxCell>
        <mxCell id="l3kukVg6Ni5ASB8LXEV2-65" value="" style="endArrow=classic;html=1;rounded=0;exitX=0;exitY=0.5;exitDx=0;exitDy=0;" parent="1" source="H5Bx8AfbAV79_ViNj87B-47" edge="1">
          <mxGeometry width="50" height="50" relative="1" as="geometry">
            <mxPoint x="660" y="260" as="sourcePoint" />
            <mxPoint x="640" y="210" as="targetPoint" />
          </mxGeometry>
        </mxCell>
        <mxCell id="3rsQEuEhHng4sPkvRyl5-3" value="" style="endArrow=none;html=1;rounded=0;exitX=1;exitY=0.5;exitDx=0;exitDy=0;" edge="1" parent="1" source="EWL9WeIQgY5VzbbyvbXt-6">
          <mxGeometry width="50" height="50" relative="1" as="geometry">
            <mxPoint x="1190" y="340" as="sourcePoint" />
            <mxPoint x="1310" y="325" as="targetPoint" />
          </mxGeometry>
        </mxCell>
        <mxCell id="3rsQEuEhHng4sPkvRyl5-4" value="" style="endArrow=none;html=1;rounded=0;" edge="1" parent="1">
          <mxGeometry width="50" height="50" relative="1" as="geometry">
            <mxPoint x="1320" y="550" as="sourcePoint" />
            <mxPoint x="1310" y="320" as="targetPoint" />
          </mxGeometry>
        </mxCell>
        <mxCell id="3rsQEuEhHng4sPkvRyl5-5" style="edgeStyle=orthogonalEdgeStyle;rounded=0;orthogonalLoop=1;jettySize=auto;html=1;exitX=0;exitY=0.5;exitDx=0;exitDy=0;entryX=0.67;entryY=-0.037;entryDx=0;entryDy=0;entryPerimeter=0;" edge="1" parent="1" source="EWL9WeIQgY5VzbbyvbXt-6" target="H5Bx8AfbAV79_ViNj87B-95">
          <mxGeometry relative="1" as="geometry" />
        </mxCell>
      </root>
    </mxGraphModel>
  </diagram>
</mxfile>
